<svg enable-background="new 0 0 264.9 219.9" viewBox="0 0 264.9 219.9" xmlns="http://www.w3.org/2000/svg"><g fill="#081019"><circle cx="57" cy="86.3" r="4.5"/><path d="m63.7 75.7c-6.5-2.5-13-1.3-19 3.5-.2.1-.2.2-.3.2-.7.7-.7 1.7 0 2.4.4.4.7.5 1.2.5s.8-.1 1.2-.5c.1-.1 6.7-6.3 15.3-3.1.4.2.9.1 1.3-.1s.8-.6 1-1 .1-1-.1-1.4c0-.2-.3-.5-.6-.5z"/><circle cx="98.1" cy="86.3" r="4.5"/><path d="m72.7 107.6c.5.9 1.7 1.6 3.1 1.8l5.9.9h.2c.8 0 1.6-.7 1.8-1.6 0-.8-.8-1.7-1.6-1.9l-6.1-.7-.5-.5v-.8l2.7-12.9c.2-1.1-.6-2-1.4-2.1-.1 0-.2 0-.3 0-.9 0-1.7.7-1.8 1.5l-2.7 12.9c-.6 1.1 0 2.3.7 3.4z"/><path d="m4.5 201.4c.7-19.7 14.8-35.9 34.2-39.3h.7l.1.1c1.1.9 2.5 1.8 4 2.7 7.1 3.5 20.2 5.6 34 5.6s26.9-2.2 34.1-5.6c1.5-.7 2.9-1.5 4-2.6l.1-.1h.7c19.8 3.3 33.9 19.5 34.3 39.3l.5 14.3c0 .1.1 3.6 1.8 3.6.3-.1 1-.3 1.2-.5.3-.3.5-.9.5-1.2l-.5-16.3c-.7-21.9-17-40-38.9-42.9h-.2c-.6 0-1.3.2-1.6.7-.2.3-.5.6-.8.8-.1.1-.3.2-.4.4-.2.2-.5.5-1 .8l-.2.1-13.5-2.8v-18.2l.9.9c.1.1.1.1.6.1.3 0 .6.1.9.1.3.1.5.1.7.1 6.2 1.1 11.1 1.6 17.3 1.6 3.4 0 7.4-.1 11.9-.3l3.7-.1c2 0 3.7-1.1 4.3-2.9.9-1.9.4-4.4-1-6.1-1.8-2.3-.5-6.4 1-10.5.2-.7.4-1.3.7-1.9.2-.6.5-1.2.7-1.9 4.5-14.9 6.8-30.2 6.8-45.5.2-31.6-7.6-53.3-23.4-64.5-19.2-14.1-43.6-7.4-48.2-6h-.1-.1c-2.4-.5-24-4.8-42.1 9.2-14.8 11.4-22.6 31.9-23.3 60.8-.2 14.1 2 29.1 6.8 45.7.2.7.4 1.3.7 1.9.2.6.5 1.3.7 1.9l.2.7c1.3 4 2.5 7.4.8 9.7-1.5 1.9-1.9 4.3-1.1 6.1.8 1.6 2.4 2.7 4.4 2.9 15.9.7 22.9.6 33-1.1.3 0 .5-.1.8-.1.3-.1.6-.1.9-.1 0 0 .1-.1.1-.1l.4-.4.7.7v17l-13.4 2.6-.2-.2c-.1-.1-.2-.2-.4-.3s-.4-.3-.5-.4-.3-.3-.4-.4c-.3-.2-.6-.5-.8-.9-.3-.4-1.1-.6-1.8-.6-21.8 2.8-38.1 20.9-38.8 43l-.5 16.6c0 .5.1.8.5 1.2s.7.5 1.2.5.8-.2 1.1-.5c.7-.8.7-2.5.6-3.1zm48.5-63.7c-5.7 1.1-10.5 1.5-16.4 1.5-4.1 0-8.8-.2-14.8-.6-.8 0-1.2-.5-1.3-.7-.3-.5-.4-1.4.5-2.6 2.9-3.8 1.4-8.6-.1-13.4l-.2-.5c-.5-1.3-.9-2.6-1.1-3.7-4.7-15.8-6.8-30.4-6.6-44.6.5-27.6 7.8-47.1 21.8-57.8 15.7-12.3 35.6-9.5 39.4-8.8h.1 1.2s.1 0 .2-.1c6.3-1.9 28.3-7.1 45.4 5.1 14.8 10.7 22.2 31.4 22 61.5 0 14.8-2.2 29.4-6.6 44.6-.2.6-.4 1.2-.6 1.8s-.3 1.3-.6 1.9c-1.7 4.6-3.6 9.9-.3 13.8.8.7.9 1.8.6 2.5-.1.3-.3.8-1.4.8-15.3.7-21.9.9-31.7-.9l-.9-.2.7-.7c7.2-7.2 13.4-17.4 18.1-29.6l.1-.3h.3c.2 0 .4.1.5.1.1.1.3.1.4.1h.1c.8.2 1.5.2 2.4.2 4.9 0 9.6-3.3 11.6-8.1 1.6-4 1.5-8.9-.2-12.1-1.1-1.9-2.6-3.2-4.5-3.8-1.4-.2-2.9-.2-4 .2l-.7.2.1-.8c.2-2 .5-4.2.5-6.3v-4c-.6 0-1.3 0-1.9-.2-.4 0-.7-.1-1.1-.1-.4-.1-.8-.1-1.1-.1-31-2.7-43.5-21.3-47.5-29.1-.3-.6-.5-1-.6-1.4-.2-.4-.3-.7-.4-.8l-.1-.1c-.6-1.2-1.2-1.2-1.7-1.1-.8 0-1.5.6-1.7 1.2-.2.7-.5 1.4-.7 2.3-6.1 16.2-23.3 23.8-36.7 27.4-.3.1-.7.2-1.1.3s-.8.2-1.1.3c-.8.2-1.5.4-2.2.4v4.1c0 2.1.2 4.2.4 6.4l.1 1.2h-.5c-1.1 0-2.2 0-3.1.2-2.7.7-4.8 2.3-5.8 4.5-1.3 2.5-1.3 5.5-.2 8.7 1.6 4.3 7.8 10.6 13.6 10.6.4 0 1 0 1.4-.2l.5-.3.2.5c4.2 11.7 10.3 21.8 17.6 29.3l.7.7zm68.1-33.9.2-.7c1.8-5.5 3-10.2 3.6-14.4v-.2l.2-.1c1.4-.8 2.6-1.2 3.7-1.2h.8c.9.3 1.7.9 2.1 1.8 1.2 2.4 1.2 6.2 0 9-1.4 3.5-4.9 5.9-8.3 5.9-.5 0-.9 0-1.4-.1zm-87.2-.4.2.6h-.7c-3.4 0-8.5-4.2-10.2-8.3-.7-2-.7-4.2 0-5.6.8-1.7 2.3-2.4 3.5-2.7h.2c.2 0 .4 0 .6-.1s.5-.1.8-.1c.5 0 1 0 1.6.3l.2.1v.2c.8 4.4 2 9.4 3.8 15.6zm23.2 32.7c-.2-.2-.4-.4-.5-.6-7.4-7.2-13.8-17.7-18-29.7-.2-.5-.3-1-.5-1.5-.6-1.7-1.2-3.4-1.5-5.1l-2.3-9.2c-.4-1.9-.8-3.7-.9-5.7-.5-3.3-.7-6.2-.7-9.4v-.4l.4-.1c25-6 35.3-18.4 39.4-27.7l.4-.9.5.8c5.8 9.8 19.8 26.6 48.7 29.5h.5v.5c0 2.8-.4 5.6-.8 8.5l-.1.6c-.5 2.7-.9 5.5-1.6 8.2l-1.6 5.6-1.8 5.4c-4.3 11.6-10.7 22.2-18.1 29.7l-2.3 2.3c-.8.8-1.9 1.6-2.3 1.9-5.5 4.3-11.2 6.4-17.1 6.4-5.4 0-10.7-1.9-15.7-5.8-.4-.4-.7-.6-1.1-.9s-.8-.6-1.2-1c-.1-.1-.3-.3-.4-.4-.3-.2-.6-.5-.8-.9-.3.1-.4 0-.6-.1zm2.6 25.1c.9-.2 1.4-.9 1.4-1.8v-15.9l.8.5c5 3.1 10.1 4.7 15.2 4.7 5.4 0 10.9-1.7 16.5-5.2l.8-.5v16.3c0 .9.5 1.6 1.4 1.8l9.9 2-2.1.5c-5.4 1.4-14.3 3-25.8 3-10.2 0-19.3-1.1-25.8-3l-1.9-.6z"/><path d="m91.7 78.7c.3.1.9.2 1.5-.1 1.8-.7 3.5-1 5.1-1 6 0 10.2 4 10.2 4 .3.3.9.5 1.2.5s.9-.2 1.2-.5c.7-.7.7-1.7 0-2.4-.1 0-.2-.1-.3-.2-6-4.8-12.5-6-18.9-3.5-.4.2-.8.5-1 1-.2.4-.2.9-.1 1.3.2.4.6.7 1.1.9z"/><path d="m244.1 15.8h-43.4c-11.3 0-20.6 9.2-20.6 20.6v25.7c0 2-.8 4-2.1 5.3l-10.2 11.2c-.9 1.2-1.1 2.7-.6 4.1.6 1.5 1.8 2.3 3.5 2.3h73.4c11.3 0 20.6-9.2 20.6-20.6v-27.7c0-11.5-9.3-20.9-20.6-20.9zm17 48.2c0 9.4-7.6 17-17 17h-73.9l10.3-11.4c1.9-2.2 2.8-4.7 2.8-7.6v-25.6c0-9.4 7.6-17 17-17h43.4c9.3 0 17 7.6 17 17z"/><path d="m232.2 63.7c2.7-2.7 4.1-6.4 4.1-10.5.3-4.2-1.3-8.4-4.4-11.1-2.5-2.5-5.8-3.9-9.3-3.9-.4 0-.8 0-1.2 0-7.4.3-13.4 6.8-13.7 14.7 0 4.4 1.4 8.1 4.1 10.8 1.4 1.4 2.1 3.2 2.1 5.3 0 3.3 2.4 5.8 5.8 5.8h4.6c3.3 0 5.8-2.6 5.8-6.1 0-1.9.8-3.6 2.1-5zm-5.6 5.4c-.4 1.7-1.4 2-2.1 2h-4.6c-.9 0-1.7-.8-2.1-2l-.2-.7h9.2zm.4-3-.1.4h-9.6l-.4-.9c-.6-1.4-1.2-3.1-2.3-4.1-2-2-3.1-5-3.1-8.3 0-6.1 4.7-11 10.4-11h.7c2.6 0 5 .9 7.2 2.7 2.3 2 3.5 4.8 3.5 8.6s-1.8 5.9-3.8 7.9c-1.4 1.4-2.2 3-2.5 4.7z"/><path d="m222.4 25.7c-1 0-1.8.8-1.8 1.8v4.3c0 1 .8 1.8 1.8 1.8s1.8-.8 1.8-1.8v-4.3c0-1-.8-1.8-1.8-1.8z"/><path d="m208.7 30c-.3 0-.6.1-.9.3-.8.8-1 1.9-.5 2.6l2.3 3.7c.1.2.4.7 1.5.7.2 0 .8 0 1-.2.9-.9 1.1-1.9.6-2.7l-2.3-3.6c-.5-.5-1.1-.8-1.7-.8z"/><path d="m235.4 36.8 2.3-3.7c.2-.4.3-.9.2-1.4s-.4-1-.7-1.2c-.4-.2-.7-.3-1.1-.3-.6 0-1.2.3-1.5.8l-2.3 3.6c-.5 1-.3 2.1.5 2.6.3.2.8.2 1 .2 1.3.1 1.5-.4 1.6-.6z"/><path d="m198.8 43.1c-.1.3-.4 2 1 2.4l3.9 1.3h.6c.4 0 1.2-.5 1.5-1.3.2-.7-.3-1.8-.7-2l-3.9-1.3c-.3-.1-2-.5-2.4.9z"/><path d="m244.2 41.5-3.9 1.3c-.7.2-1.3 1.3-1 2.4.2.6.6 1.3 1.5 1.3h.6l3.9-1.3c.7-.2 1.3-1.3 1-2.4s-1.4-1.3-2.1-1.3z"/><path d="m77.9 134c5.4 0 10.2-2.9 14.3-8.5 0-.6 0-1.4-.3-1.9s-1.1-1-1.5-1h-25.7c-.9 0-1.3.3-1.5 1-.3.6-.3 1.3.2 1.8 4.3 5.7 9.1 8.6 14.5 8.6zm8.8-7.9-.9.9c-2.6 2.4-5.3 3.6-8.1 3.6s-5.6-1.2-8.4-3.6l-1-.9z"/></g></svg>