<svg enable-background="new 0 0 105.3 126.4" viewBox="0 0 105.3 126.4" xmlns="http://www.w3.org/2000/svg"><g fill="#081019"><path d="m52.5 32.2c-23 0-41.6 18.6-41.6 41.6s18.6 41.6 41.6 41.6 41.6-18.9 41.6-41.6-18.6-41.6-41.6-41.6zm0 80.4c-21.6 0-39.1-17.5-39.1-39.1 0-21.4 17.5-38.9 39.1-38.9s39.1 17.5 39.1 39.1c0 21.5-17.5 38.9-39.1 38.9z"/><path d="m89.3 36.1-.2-.2 2.5-2.5 3 3c.9.9 2.5 1.6 3.9 1.6s2.8-.7 3.9-1.6l.9-1.1c2.1-2.1 2.1-5.7 0-7.8l-7.6-7.6c-2.1-2.1-5.7-2.1-7.8 0l-1.1.9c-1.1 1.1-1.6 2.5-1.6 3.9 0 1.6.7 3 1.6 4.1l2.8 3-2.6 2.5-.2-.3c-9-7.8-20.7-12.4-32.9-12.9h-.2v-3.7h7.6c3 0 5.5-2.5 5.5-5.5v-6.4c0-3-2.5-5.5-5.5-5.5h-17.5c-3 0-5.5 2.5-5.5 5.5v6.5c0 3 2.5 5.5 5.5 5.5h7.6v3.4h-.2c-13.6.5-26.4 6-36.1 15.9s-15 23-15 36.8c-.2 29.2 23.4 52.9 52.4 52.9s52.6-23.7 52.6-52.6c.1-14.4-5.7-27.7-15.8-37.8zm-.7-9.2c-.7-.7-.9-1.4-.9-2.1s.2-1.6.9-2.1l.9-1.1c.7-.7 1.4-.9 2.1-.9s1.6.5 2.1.9l7.6 7.6c1.1 1.1 1.1 3 0 4.4l-.7.9c-.7.7-1.4.9-2.1.9s-1.6-.2-2.1-.9zm-44.8-11.7c-1.8 0-3-1.1-3-3v-6.7c0-1.6 1.4-3 3-3h17.7c1.6 0 3 1.4 3 3v6.5c0 1.6-1.4 3-3 3h-17.7zm8.7 108.7c-27.6 0-50.1-22.5-50.1-50.1s22.5-50.1 50.1-50.1 50.1 22.5 50.1 50.1-22.5 50.1-50.1 50.1z"/><path d="m54.1 66.7h-.2v-14.5c0-.7-.5-1.2-1.1-1.2-.7 0-1.1.5-1.1 1.2v14.6h-.2"/><path d="m53.7 40.7c0-.7-.5-1.1-1.1-1.1-.7 0-1.1.5-1.1 1.1v4.1c0 .7.7 1.1 1.1 1.1.7 0 1.1-.5 1.1-1.1z"/><path d="m36 43.7c-.2 0-.5 0-.7.2-.7.2-.7 1.1-.5 1.8l2.1 3.4c.2.5.7.7 1.1.7.2 0 .5 0 .7-.2.7-.5.7-1.1.5-1.8l-2.1-3.4c-.2-.5-.7-.7-1.1-.7z"/><path d="m23.3 58.2 3.4 2.1h.7c.2 0 .9-.2 1.1-.7.5-.7.2-1.4-.5-1.8l-3.4-2.1c-.2-.2-.7-.2-.9-.2s-.7.2-.7.7c-.6.8-.4 1.5.3 2z"/><path d="m23.5 72.4h-4.1c-.7 0-1.1.5-1.1 1.1 0 .7.5 1.1 1.1 1.1h4.1c.7 0 1.1-.7 1.1-1.1.3-.6-.1-1.1-1.1-1.1z"/><path d="m24.7 91.3 3.4-2.1c.7-.5.7-1.1.5-1.8-.2-.5-.7-.7-1.1-.7-.2 0-.5 0-.7.2l-3.5 2.1c-.2.2-.5.5-.7.7 0 .2 0 .7.2.9.2.5.7.7 1.1.7.3.2.3.2.8 0z"/><path d="m34.8 101.6c-.2.2-.2.7-.2.9s.2.7.7.7h.7c.2 0 .9-.2 1.1-.7l2.1-3.4c.2-.5.2-1.4-.5-1.8-.2-.3-.4-.3-.7-.3-.5 0-.9.2-1.1.7z"/><path d="m53.7 102.5c0-.7-.5-1.1-1.1-1.1-.7 0-1.1.5-1.1 1.1v4.1c0 .7.5 1.1 1.1 1.1.7 0 1.1-.5 1.1-1.1z"/><path d="m67 97.5c-.2 0-.5 0-.7.2-.7.5-.7 1.1-.5 1.8l2.1 3.4c.2.5.7.7 1.1.7.2 0 .5 0 .7-.2.7-.5.7-1.1.5-1.8l-2.1-3.4c-.2-.5-.6-.7-1.1-.7z"/><path d="m78.3 87.1c-.2-.2-.5-.2-.7-.2h-.2c-.2 0-.7.2-.7.7-.2.2-.2.7-.2.9 0 .5.2.7.7.9l3.4 2.1h.7c.2 0 .9-.2 1.1-.7s0-1.4-.5-1.8z"/><path d="m85.6 72.4h-4.1c-.7 0-1.1.5-1.1 1.1 0 .7.5 1.1 1.1 1.1h4.1c.7 0 1.1-.5 1.1-1.1.1-.6-.2-1.1-1.1-1.1z"/><path d="m78.3 60.2 3.4-2.1c.7-.5.7-1.1.5-1.8-.2-.5-.7-.5-1.1-.5-.2 0-.5 0-.7.2l-3.4 2.1c-.5.2-.7.5-.7.9 0 .2 0 .7.2.9.2.5.7.7 1.1.7.4-.1.4-.1.7-.4z"/><path d="m65.8 47.8c-.5.7-.2 1.4.5 1.8h.7c.2 0 .9-.2 1.1-.7l2.1-3.4c.5-.7.2-1.4-.5-1.8-.2 0-.5 0-.7 0-.5 0-.9.2-1.1.7z"/><path d="m52.8 65.7c-4.3 0-7.7 3.5-7.7 7.7 0 4.3 3.5 7.7 7.7 7.7s7.7-3.5 7.7-7.7-3.4-7.7-7.7-7.7zm0 13.6c-3.2 0-5.9-2.6-5.9-5.9 0-3.2 2.6-5.9 5.9-5.9 3.2 0 5.9 2.6 5.9 5.9s-2.7 5.9-5.9 5.9z"/></g></svg>