<svg enable-background="new 0 0 40.5 67.1" viewBox="0 0 40.5 67.1" xmlns="http://www.w3.org/2000/svg"><g fill="#081019"><path d="m20.3 29.7c0-.3-.2-.5-.5-.5 0 0 0 0-.1 0-.3 0-.4.3-.5.5l-.2 3.1c0 .1.1.3.1.4.1.1.2.1.3.1h.1 1.4c.3 0 .5-.2.5-.5s-.2-.5-.5-.5h-.8l.1-1.2z"/><circle cx="24.5" cy="28.5" r="1"/><path d="m10.1 4.6c.3.6 1.2.8 1.5.8h.3v.2c0 .2 0 .4.1.6.2.7.7 1.2 1.4 1.4.3.1.5.1.8.1h.2v.5c.1.5.4.9.8 1.1.2.2.3.2.5.2s.4-.1.5-.1c.1-.1.2-.2.2-.3s0-.2-.1-.4-.4-.3-.6-.3h-.1l-.1-.1s-.1-.1-.1-.3c0-.1 0-.3.1-.4v-.1h.1c1-.3 1.6-.8 1.8-1.5.1-.2 0-.4-.1-.4-.1-.2-.3-.2-.4-.2-.7.1-1.4.5-1.8 1l-.2.2h-.1c-.4.1-.7.1-1.1 0-.3-.1-.6-.4-.7-.7v-.5h.2c1.1 0 2.2-.2 3.5-.5h.1c.5-.1 1.5-.5 1.9-1.5.1-.2.1-.5.1-.7-.1-.5-.6-.8-1.3-.7-1.5.1-3.1.7-4.3 1.8-.2.2-.4.4-.5.6l-.1.1h-.1c-.2 0-.4 0-.6-.1-.3 0-.6 0-.7-.1-.1 0-.1-.1-.1-.2-.1-.4.2-.8.5-1.1 1.4-1.4 3.4-2.1 5.3-1.9.3 0 .5-.2.5-.5s-.2-.5-.5-.5c-.2 0-.4 0-.6 0-1.9 0-3.9.8-5.3 2.3-.8.4-1.3 1.4-.9 2.2zm4.1-.6c.9-.7 1.9-1.1 3.1-1.1h.1.3l-.1.3c-.2.3-.6.5-1.2.8-.6.2-1.3.4-2 .4l-.7.1z"/><path d="m16 29.5c.5 0 .9-.5 1-1 0-.5-.5-1-1-1s-1 .5-1 1 .5 1 1 1z"/><path d="m17.9 24.1c0-.1-.1-.2-.2-.3s-.2-.1-.3-.1h-.1c-.1 0-.2.1-.3.2-.3.4-2.2.7-3.3.7-.3 0-.5.2-.5.5s.3.5.5.5c1.2 0 3.5-.2 4.1-1.2.1 0 .1-.2.1-.3z"/><path d="m27.3 25.2c0-.2-.2-.5-.5-.5-1.1 0-3-.2-3.3-.6-.1-.1-.2-.2-.3-.2s-.3 0-.4.1-.2.2-.2.3 0 .3.1.4c.6.9 3 1.1 4.1 1.1.3-.2.5-.4.5-.6z"/><path d="m23.7 37c.3 0 .5-.2.5-.5s-.2-.5-.5-.5h-7c-.3 0-.5.2-.5.5s.2.5.5.5z"/><path d="m34.5 42.3c2.1.3 3.6 1.8 3.6 3.6l1.4 20.7c0 .2.2.4.5.4h.1c.1 0 .3-.1.3-.1.1-.1.1-.2.1-.4l-1.4-20.5c0-2.3-1.9-4.3-4.4-4.6l-5.1-.6v-.1c0-.1-.1-.1-.2-.1h-.1l-2.4-.6.2-.2c.5-.5.8-.9 1.1-1.4.7-1.1 1.1-2.4 1.2-3.7l.2-2.1h.2c1.5 0 2.7-1.2 2.7-2.8 0-.4-.1-.8-.2-1.1v-.1-.1c1.4-8.3.3-13.9-3.2-16.9-2-1.7-4.6-2.2-6.9-2.2-3.6 0-6.7 1.2-6.9 1.3-3.2.8-5.2 2.4-6.4 4.9-2 4.3-.5 9.7.2 11.8v.1l-.1.1c-.5.5-.8 1.2-.8 2 0 1.5 1.2 2.8 2.7 2.8h.1l.2 2.1c.1 1.3.5 2.6 1.2 3.7.4.6.7 1 1.1 1.4l.3.2-2.5.6c-.1 0-.2.1-.3.2h-.1l-5 .6c-2.5.3-4.4 2.3-4.4 4.6l-1.5 20.8c0 .3.2.5.5.5.3 0 .5-.2.5-.4v-1.3l1.4-19.5c0-1.8 1.5-3.3 3.6-3.6l4.7-.6-1 4.2c0 .1-.1.4.2.5l2.3 1.8-1.7 3.1c-.1.1-.1.3 0 .4l8.5 12.5c.1.1.2.2.4.2h.1c.2-.1.4-.4.3-.5l-1.4-6.5.8-8.1h1.9l.8 8.2-1.4 6.4c-.1.3 0 .4.3.5h.1.1c.1 0 .3-.1.4-.2l8.6-12.4c0-.1 0-.1.1-.1 0-.1 0-.3 0-.4l-1.7-3.1 2.3-1.8c.1-.1.2-.4.2-.5l-1-4.2zm-4.7-10.9h-.2l.2-3.6h.2c.8.2 1.4.9 1.4 1.8.1.9-.7 1.8-1.6 1.8zm-19 0c-1 0-1.7-.8-1.7-1.8 0-.9.6-1.6 1.5-1.8h.2l.2 3.6zm-.3-7.9v.1.2.1l.2 3h-.2c-.1 0-.1 0-.2 0s-.2 0-.3 0h-.1v-.1c-.9-2.5-2-7.2-.3-10.8 1.1-2.2 2.9-3.6 5.8-4.4h.2c2-.7 8.7-2.7 12.8.8 3 2.5 4.1 7.5 3.1 14.8v.3l-.3-.2c-.3-.2-.7-.3-1-.4h-.2l.2-2.1c.1-.6-.4-1.1-.9-1.2-1.3-.4-3.3-1.3-5-3.7-1.1-1.6-2.4-2.5-3.8-2.7-1.5-.3-2.6.4-3.2.9-.3.2-.6.3-.8.2-1-.3-2.1-.1-3 .4-1.5.7-2.5 2.3-3 4.8zm2.7 14.2c-.6-1-.9-2.1-1-3.3l-.7-10.7c.4-2.1 1.3-3.6 2.4-4.3.5-.3 1-.4 1.5-.4.2 0 .4 0 .5.1h.1.1c.6.2 1.2.1 1.8-.3.2-.2 1.2-.9 2.4-.7 1.1.1 2.1.9 3.1 2.3 1.9 2.6 4.1 3.6 5.6 4.1h.2v.2l-.6 9.8c-.1 1.2-.4 2.3-1.1 3.3-1.3 2.1-3.7 3.4-6.2 3.4h-1.8c-2.7-.1-5-1.4-6.3-3.5zm9.1 4.3-2.1 1.4-2.1-1.4zm-10.9 9.5 1.8-3.2c.1-.2.1-.5-.2-.6l-2.4-1.8 1.1-4.5 2.2-.6v.2l4.3 20.6zm6.4 2.6-1.1-4.9h.2c.2-.1.4-.2.5-.3l.6-.7.3.9zm-1.3-5.8-1.5-7.1 4.7 3zm4.8-.1h-2.2l-.3-1.1 1.5-1.9 1.5 1.9zm-.5-3.9 4.7-3.1-1.5 7.1zm2.9 4.9-1.1 5-.4-5.2.2-1 .6.7c.1.2.3.3.5.3zm3.8-1.5c-.2.2-.2.5-.1.6l1.8 3.2-.2.1-7 10 4.4-20.8 2.2.6 1.1 4.5z"/></g></svg>